<svg width="323" height="431" viewBox="0 0 323 431" fill="none" xmlns="http://www.w3.org/2000/svg">
<rect x="1" y="1" width="321" height="429" rx="14" fill="white" fill-opacity="0.5"/>
<path d="M128.28 30H129.22L127.28 23.52H126.14L124.18 30H125.07L125.5 28.51H127.85L128.28 30ZM126.64 24.29H126.74C126.81 24.63 126.83 24.94 127.06 25.74L127.62 27.71H125.73L126.26 25.9C126.44 25.3 126.58 24.68 126.64 24.29ZM130.19 30H131.01H132.12C132.48 30 132.76 29.98 133.03 29.89C133.66 29.69 133.99 29.21 133.99 28.6C133.99 28.12 133.68 27.51 132.77 27.45V27.38C133.49 27.22 133.8 26.69 133.8 26.24C133.8 25.34 133.1 25 132.34 25H131.01H130.19V30ZM131.01 29.34V27.78H132.22C132.68 27.78 133.15 28 133.15 28.55C133.15 29.1 132.75 29.34 132.19 29.34H131.01ZM131.01 27.15V25.64H132.16C132.59 25.64 132.97 25.85 132.97 26.36C132.97 26.88 132.53 27.15 132.04 27.15H131.01ZM136.98 30V25.76H138.58V25H134.52V25.76H136.12V30H136.98ZM141.09 30.1C142.42 30.1 143.21 29.16 143.21 27.5C143.21 25.84 142.42 24.9 141.09 24.9C139.76 24.9 138.97 25.84 138.97 27.5C138.97 29.16 139.76 30.1 141.09 30.1ZM141.09 29.41C140.4 29.41 139.89 28.79 139.89 27.5C139.89 26.23 140.4 25.58 141.09 25.58C141.77 25.58 142.29 26.23 142.29 27.5C142.29 28.79 141.77 29.41 141.09 29.41ZM145.012 30V27.79H145.472C145.972 27.79 146.152 28.06 146.302 28.51C146.492 29.09 146.642 29.73 146.852 30H147.852C147.632 29.75 147.512 29.48 147.372 29.13C147.242 28.8 147.122 28.41 147.052 28.23C146.882 27.78 146.662 27.59 146.152 27.5V27.41C146.582 27.32 146.832 27.15 147.032 26.75C147.152 26.51 147.242 26.24 147.382 25.83C147.472 25.57 147.612 25.2 147.812 25H146.852C146.622 25.31 146.462 26.05 146.262 26.57C146.102 26.99 145.902 27.17 145.472 27.17H145.012V25H144.162V30H145.012ZM150.915 30.1C151.135 30.1 151.375 30.06 151.635 29.93C152.085 29.7 152.485 29.22 152.665 28.53C152.745 28.22 152.795 27.88 152.795 27.5C152.795 27.12 152.745 26.78 152.665 26.47C152.455 25.65 151.875 24.95 150.915 24.95C150.085 24.95 149.625 25.39 149.425 26.16L149.335 26.15C149.395 25.79 149.485 25.33 149.485 25.08V25H148.625V31.78H149.485V29.97C149.485 29.72 149.395 29.26 149.335 28.9L149.425 28.89C149.625 29.66 150.085 30.1 150.915 30.1ZM150.705 29.39C149.995 29.39 149.525 28.69 149.525 27.5C149.525 26.33 149.995 25.61 150.705 25.61C151.405 25.61 151.945 26.33 151.945 27.5C151.945 28.69 151.405 29.39 150.705 29.39ZM157.54 28.34L156.71 28.33C156.71 29.13 156.21 29.41 155.69 29.41C154.99 29.41 154.44 28.87 154.43 27.55H157.48C157.51 27.37 157.52 27.18 157.52 27.01C157.52 25.86 156.93 24.9 155.66 24.9C154.24 24.9 153.56 26.06 153.56 27.54C153.56 28.96 154.19 30.1 155.64 30.1C156.79 30.1 157.51 29.44 157.54 28.34ZM155.62 25.58C156.28 25.58 156.68 26.03 156.68 26.92V27.01H154.44C154.49 26.16 154.9 25.58 155.62 25.58ZM162.144 29.33V25H159.124C159.094 26.29 159.054 27.75 158.974 28.16C158.834 28.89 158.614 29.33 158.134 29.33H158.044V31.34H158.764V30H162.114V31.34H162.834V29.33H162.144ZM159.014 29.33V29.26C159.394 29.04 159.614 28.62 159.694 27.97C159.734 27.64 159.784 26.76 159.824 25.78H161.314V29.33H159.014ZM166.595 25.99L166.675 26.01C166.565 26.51 166.515 27.2 166.505 27.92L166.495 30H167.325V25H166.495L165.235 27.22C164.675 28.2 164.555 28.67 164.365 29.09L164.275 29.05C164.405 28.59 164.445 27.63 164.445 26.92V25H163.615V30H164.475L165.675 27.89C166.285 26.81 166.405 26.42 166.595 25.99ZM170.564 30V25.76H172.164V25H168.104V25.76H169.704V30H170.564Z" fill="black" fill-opacity="0.8"/>
<path d="M23.43 69.52H18.87V76H19.75V70.3H22.55V76H23.43V69.52ZM27.1612 76.1C27.3812 76.1 27.6212 76.06 27.8812 75.93C28.3312 75.7 28.7312 75.22 28.9112 74.53C28.9912 74.22 29.0412 73.88 29.0412 73.5C29.0412 73.12 28.9912 72.78 28.9112 72.47C28.7012 71.65 28.1212 70.95 27.1612 70.95C26.3312 70.95 25.8712 71.39 25.6712 72.16L25.5812 72.15C25.6412 71.79 25.7312 71.33 25.7312 71.08V71H24.8712V77.78H25.7312V75.97C25.7312 75.72 25.6412 75.26 25.5812 74.9L25.6712 74.89C25.8712 75.66 26.3312 76.1 27.1612 76.1ZM26.9512 75.39C26.2412 75.39 25.7712 74.69 25.7712 73.5C25.7712 72.33 26.2412 71.61 26.9512 71.61C27.6512 71.61 28.1912 72.33 28.1912 73.5C28.1912 74.69 27.6512 75.39 26.9512 75.39ZM31.9258 76.1C33.2558 76.1 34.0458 75.16 34.0458 73.5C34.0458 71.84 33.2558 70.9 31.9258 70.9C30.5958 70.9 29.8058 71.84 29.8058 73.5C29.8058 75.16 30.5958 76.1 31.9258 76.1ZM31.9258 75.41C31.2358 75.41 30.7258 74.79 30.7258 73.5C30.7258 72.23 31.2358 71.58 31.9258 71.58C32.6058 71.58 33.1258 72.23 33.1258 73.5C33.1258 74.79 32.6058 75.41 31.9258 75.41ZM34.9981 71V76H38.6381V77.44H39.3081V75.33H38.7281V71H37.8981V75.33H35.8281V71H34.9981ZM43.903 74.34L43.073 74.33C43.073 75.13 42.573 75.41 42.053 75.41C41.353 75.41 40.803 74.87 40.793 73.55H43.843C43.873 73.37 43.883 73.18 43.883 73.01C43.883 71.86 43.293 70.9 42.023 70.9C40.603 70.9 39.923 72.06 39.923 73.54C39.923 74.96 40.553 76.1 42.003 76.1C43.153 76.1 43.873 75.44 43.903 74.34ZM41.983 71.58C42.643 71.58 43.043 72.03 43.043 72.92V73.01H40.803C40.853 72.16 41.263 71.58 41.983 71.58ZM45.7798 76V73.83H47.8798V76H48.7298V71H47.8798V73.06H45.7798V71H44.9298V76H45.7798ZM51.9665 76V71.76H53.5665V71H49.5065V71.76H51.1065V76H51.9665ZM55.1938 76V73.83H57.2938V76H58.1438V71H57.2938V73.06H55.1938V71H54.3438V76H55.1938ZM59.4405 72.48H60.2505C60.1505 71.93 60.4805 71.56 61.1305 71.56C61.7405 71.56 62.0605 71.91 62.0605 72.64V72.83C60.8305 72.94 59.1905 73.03 59.1905 74.68C59.1905 75.39 59.6305 76.1 60.6605 76.1C61.5105 76.1 61.9205 75.62 62.1205 75.01H62.2105C62.1505 75.35 62.0505 75.79 62.0505 75.92V76H62.9005V72.7C62.9005 71.57 62.4705 70.9 61.2205 70.9C60.0305 70.9 59.3805 71.55 59.4405 72.48ZM60.9705 75.46C60.4105 75.46 60.0105 75.09 60.0105 74.55C60.0105 73.9 60.3905 73.43 62.0605 73.31C62.0805 73.61 62.0805 73.92 62.0605 74.22C62.0105 74.93 61.5905 75.46 60.9705 75.46ZM64.7864 72.52C64.7864 71.9 65.2264 71.66 65.8864 71.66H66.7464V73.42H65.9964C65.2864 73.42 64.7864 73.11 64.7864 72.52ZM63.7464 76H64.7564C64.8964 75.59 64.9964 75.07 65.1064 74.71C65.2664 74.18 65.4664 74.13 65.9764 74.13H66.7464V76H67.5664V71H66.1064C65.4264 71 65.1564 71.01 64.8064 71.15C64.3064 71.35 63.9464 71.8 63.9464 72.48C63.9464 73.07 64.2664 73.7 65.3064 73.69V73.83C64.7464 73.86 64.4464 74.12 64.2664 74.61C64.1064 75.05 63.9264 75.82 63.7464 76ZM22.31 89.08L21.48 89.07C21.53 90.13 20.98 90.43 20.51 90.43C19.75 90.43 19.29 89.78 19.29 88.5C19.29 87.29 19.72 86.59 20.49 86.59C21.09 86.59 21.47 87.01 21.46 87.86L22.3 87.87C22.36 86.63 21.62 85.9 20.49 85.9C18.99 85.9 18.38 87.14 18.38 88.54C18.38 90.03 18.99 91.1 20.49 91.1C21.68 91.1 22.33 90.27 22.31 89.08ZM25.1696 91V86.76H26.7696V86H22.7096V86.76H24.3096V91H25.1696ZM27.4191 87.48H28.2291C28.1291 86.93 28.4591 86.56 29.1091 86.56C29.7191 86.56 30.0391 86.91 30.0391 87.64V87.83C28.8091 87.94 27.1691 88.03 27.1691 89.68C27.1691 90.39 27.6091 91.1 28.6391 91.1C29.4891 91.1 29.8991 90.62 30.0991 90.01H30.1891C30.1291 90.35 30.0291 90.79 30.0291 90.92V91H30.8791V87.7C30.8791 86.57 30.4491 85.9 29.1991 85.9C28.0091 85.9 27.3591 86.55 27.4191 87.48ZM28.9491 90.46C28.3891 90.46 27.9891 90.09 27.9891 89.55C27.9891 88.9 28.3691 88.43 30.0391 88.31C30.0591 88.61 30.0591 88.92 30.0391 89.22C29.9891 89.93 29.5691 90.46 28.9491 90.46ZM32.3349 91H33.1549H34.2649C34.6249 91 34.9049 90.98 35.1749 90.89C35.8049 90.69 36.1349 90.21 36.1349 89.6C36.1349 89.12 35.8249 88.51 34.9149 88.45V88.38C35.6349 88.22 35.9449 87.69 35.9449 87.24C35.9449 86.34 35.2449 86 34.4849 86H33.1549H32.3349V91ZM33.1549 90.34V88.78H34.3649C34.8249 88.78 35.2949 89 35.2949 89.55C35.2949 90.1 34.8949 90.34 34.3349 90.34H33.1549ZM33.1549 88.15V86.64H34.3049C34.7349 86.64 35.1149 86.85 35.1149 87.36C35.1149 87.88 34.6749 88.15 34.1849 88.15H33.1549ZM38.0747 91V88.79H38.5347C39.0347 88.79 39.2147 89.06 39.3647 89.51C39.5547 90.09 39.7047 90.73 39.9147 91H40.9147C40.6947 90.75 40.5747 90.48 40.4347 90.13C40.3047 89.8 40.1847 89.41 40.1147 89.23C39.9447 88.78 39.7247 88.59 39.2147 88.5V88.41C39.6447 88.32 39.8947 88.15 40.0947 87.75C40.2147 87.51 40.3047 87.24 40.4447 86.83C40.5347 86.57 40.6747 86.2 40.8747 86H39.9147C39.6847 86.31 39.5247 87.05 39.3247 87.57C39.1647 87.99 38.9647 88.17 38.5347 88.17H38.0747V86H37.2247V91H38.0747ZM41.5499 87.48H42.3599C42.2599 86.93 42.5899 86.56 43.2399 86.56C43.8499 86.56 44.1699 86.91 44.1699 87.64V87.83C42.9399 87.94 41.2999 88.03 41.2999 89.68C41.2999 90.39 41.7399 91.1 42.7699 91.1C43.6199 91.1 44.0299 90.62 44.2299 90.01H44.3199C44.2599 90.35 44.1599 90.79 44.1599 90.92V91H45.0099V87.7C45.0099 86.57 44.5799 85.9 43.3299 85.9C42.1399 85.9 41.4899 86.55 41.5499 87.48ZM43.0799 90.46C42.5199 90.46 42.1199 90.09 42.1199 89.55C42.1199 88.9 42.4999 88.43 44.1699 88.31C44.1899 88.61 44.1899 88.92 44.1699 89.22C44.1199 89.93 43.6999 90.46 43.0799 90.46Z" fill="black" fill-opacity="0.8"/>
<path d="M127 85.12C128.596 85.12 129.544 83.992 129.544 82C129.544 80.008 128.596 78.88 127 78.88C125.404 78.88 124.456 80.008 124.456 82C124.456 83.992 125.404 85.12 127 85.12ZM127 84.292C126.172 84.292 125.56 83.548 125.56 82C125.56 80.476 126.172 79.696 127 79.696C127.816 79.696 128.44 80.476 128.44 82C128.44 83.548 127.816 84.292 127 84.292ZM132.967 85V79.912H134.887V79H130.015V79.912H131.935V85H132.967ZM141.537 81.028V80.92C142.317 80.596 142.857 80.128 142.857 79.132C142.857 77.8 141.789 77.08 140.421 77.08C139.053 77.08 137.985 77.8 137.985 79.132C137.985 80.128 138.525 80.596 139.305 80.92V81.028C138.429 81.316 137.829 82 137.829 83.02C137.829 84.412 139.029 85.12 140.385 85.12C141.693 85.12 143.013 84.412 143.013 83.02C143.013 82 142.413 81.316 141.537 81.028ZM140.421 77.944C141.105 77.944 141.801 78.328 141.801 79.264C141.801 80.2 141.093 80.56 140.589 80.572H140.253C139.749 80.572 139.041 80.2 139.041 79.264C139.041 78.328 139.737 77.944 140.421 77.944ZM140.445 84.256C139.677 84.256 138.921 83.872 138.921 82.888C138.921 81.892 139.725 81.472 140.193 81.472H140.649C141.117 81.472 141.921 81.892 141.921 82.888C141.921 83.872 141.165 84.256 140.445 84.256ZM145.131 83.332C144.759 83.332 144.435 83.644 144.435 84.196C144.435 84.784 144.747 85.084 145.119 85.084C145.119 85.348 144.819 86.02 144.579 86.356L144.975 86.464C145.299 86.164 145.815 85.132 145.815 84.268C145.815 83.572 145.491 83.332 145.131 83.332ZM149.423 82.312C150.203 82.312 150.827 81.976 151.211 81.22L151.307 81.232C151.295 82.444 150.935 84.256 149.579 84.256C149.003 84.256 148.595 83.896 148.619 83.26H147.539C147.443 84.364 148.223 85.144 149.483 85.144C151.439 85.144 152.255 83.32 152.255 80.788C152.255 78.148 151.223 77.164 149.747 77.164C148.427 77.164 147.287 78.052 147.287 79.828C147.287 81.592 148.439 82.312 149.423 82.312ZM149.723 78.064C150.503 78.064 151.115 78.748 151.115 79.768C151.115 80.896 150.515 81.508 149.711 81.508C148.991 81.508 148.355 81.004 148.355 79.756C148.355 78.568 148.991 78.064 149.723 78.064ZM160.942 77.224L156.502 85H157.33L161.77 77.224H160.942ZM157.354 80.608C157.57 80.608 157.786 80.572 158.014 80.488C158.41 80.332 158.758 80.008 158.914 79.552C158.986 79.348 159.022 79.108 159.022 78.856C159.022 78.604 158.986 78.376 158.914 78.172C158.758 77.704 158.41 77.38 158.014 77.224C157.786 77.14 157.57 77.116 157.354 77.116C157.138 77.116 156.91 77.152 156.682 77.248C156.286 77.392 155.962 77.704 155.782 78.172C155.71 78.376 155.674 78.604 155.674 78.856C155.674 79.108 155.71 79.348 155.782 79.552C155.938 80.008 156.286 80.332 156.682 80.488C156.91 80.572 157.126 80.608 157.354 80.608ZM157.354 79.984C156.874 79.984 156.514 79.624 156.514 78.856C156.514 78.112 156.874 77.728 157.354 77.728C157.822 77.728 158.182 78.112 158.182 78.856C158.182 79.624 157.822 79.984 157.354 79.984ZM160.954 85.096C161.17 85.096 161.386 85.06 161.614 84.976C162.01 84.832 162.358 84.496 162.514 84.04C162.586 83.836 162.622 83.596 162.622 83.344C162.622 83.092 162.586 82.864 162.514 82.66C162.346 82.192 162.01 81.856 161.614 81.712C161.386 81.628 161.17 81.604 160.954 81.604C160.738 81.604 160.51 81.64 160.282 81.736C159.898 81.904 159.55 82.192 159.382 82.66C159.31 82.864 159.274 83.092 159.274 83.344C159.274 83.596 159.31 83.836 159.382 84.04C159.538 84.496 159.886 84.832 160.282 84.976C160.51 85.06 160.726 85.096 160.954 85.096ZM160.954 84.472C160.474 84.472 160.114 84.112 160.114 83.344C160.114 82.6 160.474 82.216 160.954 82.216C161.422 82.216 161.782 82.6 161.782 83.344C161.782 84.112 161.422 84.472 160.954 84.472Z" fill="black" fill-opacity="0.8"/>
<path d="M124.972 153.064V154H129.664V153.064H127.852V146.224H127.024C126.76 146.92 126.076 147.496 125.068 147.556V148.552C125.788 148.552 126.448 148.12 126.76 147.424L126.808 147.436V153.064H124.972ZM132.25 149.752L132.142 149.668C132.238 149.128 132.286 148.708 132.322 148.288L132.418 147.136H135.25V146.224H131.542L131.206 150.388L132.226 150.592C132.406 150.172 132.778 149.848 133.318 149.848C133.954 149.848 134.65 150.328 134.65 151.528C134.65 152.752 134.038 153.28 133.258 153.292C132.478 153.304 131.938 152.824 132.13 151.768H131.074C130.738 153.292 131.722 154.144 133.174 154.144C134.566 154.144 135.718 153.304 135.718 151.492C135.718 149.752 134.71 149.02 133.714 149.02C133.054 149.02 132.658 149.212 132.25 149.752ZM141.718 154.132C143.266 154.132 144.214 152.584 144.19 150.124C144.202 147.664 143.254 146.116 141.73 146.116C140.182 146.116 139.222 147.664 139.234 150.124C139.222 152.584 140.182 154.132 141.718 154.132ZM141.706 153.244C140.842 153.244 140.302 152.092 140.302 150.124C140.302 148.18 140.842 147.016 141.706 147.016C142.57 147.016 143.11 148.18 143.11 150.124C143.122 152.092 142.57 153.244 141.706 153.244ZM147.952 154.132C149.5 154.132 150.448 152.584 150.424 150.124C150.436 147.664 149.488 146.116 147.964 146.116C146.416 146.116 145.456 147.664 145.468 150.124C145.456 152.584 146.416 154.132 147.952 154.132ZM147.94 153.244C147.076 153.244 146.536 152.092 146.536 150.124C146.536 148.18 147.076 147.016 147.94 147.016C148.804 147.016 149.344 148.18 149.344 150.124C149.356 152.092 148.804 153.244 147.94 153.244ZM154.187 154.132C155.735 154.132 156.683 152.584 156.659 150.124C156.671 147.664 155.723 146.116 154.199 146.116C152.651 146.116 151.691 147.664 151.703 150.124C151.691 152.584 152.651 154.132 154.187 154.132ZM154.175 153.244C153.311 153.244 152.771 152.092 152.771 150.124C152.771 148.18 153.311 147.016 154.175 147.016C155.039 147.016 155.579 148.18 155.579 150.124C155.591 152.092 155.039 153.244 154.175 153.244ZM162.706 154.132C164.254 154.132 165.202 152.584 165.178 150.124C165.19 147.664 164.242 146.116 162.718 146.116C161.17 146.116 160.21 147.664 160.222 150.124C160.21 152.584 161.17 154.132 162.706 154.132ZM162.694 153.244C161.83 153.244 161.29 152.092 161.29 150.124C161.29 148.18 161.83 147.016 162.694 147.016C163.558 147.016 164.098 148.18 164.098 150.124C164.11 152.092 163.558 153.244 162.694 153.244ZM168.941 154.132C170.489 154.132 171.437 152.584 171.413 150.124C171.425 147.664 170.477 146.116 168.953 146.116C167.405 146.116 166.445 147.664 166.457 150.124C166.445 152.584 167.405 154.132 168.941 154.132ZM168.929 153.244C168.065 153.244 167.525 152.092 167.525 150.124C167.525 148.18 168.065 147.016 168.929 147.016C169.793 147.016 170.333 148.18 170.333 150.124C170.345 152.092 169.793 153.244 168.929 153.244ZM175.175 154.132C176.723 154.132 177.671 152.584 177.647 150.124C177.659 147.664 176.711 146.116 175.187 146.116C173.639 146.116 172.679 147.664 172.691 150.124C172.679 152.584 173.639 154.132 175.175 154.132ZM175.163 153.244C174.299 153.244 173.759 152.092 173.759 150.124C173.759 148.18 174.299 147.016 175.163 147.016C176.027 147.016 176.567 148.18 176.567 150.124C176.579 152.092 176.027 153.244 175.163 153.244ZM185.074 151.756H183.058V151.264H183.25C183.862 151.264 185.326 151.264 186.058 150.196C186.322 149.812 186.49 149.392 186.49 148.804C186.49 147.376 185.578 146.752 184.858 146.572C184.318 146.44 183.862 146.44 183.574 146.44H182.026V150.448H181.114V151.252H181.942V151.264H182.026V151.756H181.114V152.512H182.026V154H183.058V152.512H185.074V151.756ZM183.466 147.316C183.958 147.316 184.198 147.328 184.486 147.436C185.05 147.652 185.386 148.156 185.386 148.828C185.386 149.536 185.05 150.052 184.51 150.292C184.234 150.412 183.886 150.448 183.514 150.448H183.058V147.316H183.466Z" fill="black" fill-opacity="0.8"/>
<path d="M128.98 309.196V304H125.356C125.32 305.548 125.272 307.3 125.176 307.792C125.008 308.668 124.744 309.196 124.168 309.196H124.06V311.608H124.924V310H128.944V311.608H129.808V309.196H128.98ZM125.224 309.196V309.112C125.68 308.848 125.944 308.344 126.04 307.564C126.088 307.168 126.148 306.112 126.196 304.936H127.984V309.196H125.224ZM132.941 310.12C134.537 310.12 135.485 308.992 135.485 307C135.485 305.008 134.537 303.88 132.941 303.88C131.345 303.88 130.397 305.008 130.397 307C130.397 308.992 131.345 310.12 132.941 310.12ZM132.941 309.292C132.113 309.292 131.501 308.548 131.501 307C131.501 305.476 132.113 304.696 132.941 304.696C133.757 304.696 134.381 305.476 134.381 307C134.381 308.548 133.757 309.292 132.941 309.292ZM139.199 309.064V310H143.891V309.064H142.079V302.224H141.251C140.987 302.92 140.303 303.496 139.295 303.556V304.552C140.015 304.552 140.675 304.12 140.987 303.424L141.035 303.436V309.064H139.199ZM146.477 305.752L146.369 305.668C146.465 305.128 146.513 304.708 146.549 304.288L146.645 303.136H149.477V302.224H145.769L145.433 306.388L146.453 306.592C146.633 306.172 147.005 305.848 147.545 305.848C148.181 305.848 148.877 306.328 148.877 307.528C148.877 308.752 148.265 309.28 147.485 309.292C146.705 309.304 146.165 308.824 146.357 307.768H145.301C144.965 309.292 145.949 310.144 147.401 310.144C148.793 310.144 149.945 309.304 149.945 307.492C149.945 305.752 148.937 305.02 147.941 305.02C147.281 305.02 146.885 305.212 146.477 305.752ZM153.124 309.172L153.136 310.084C154.564 310.084 154.9 309.592 154.996 308.764C155.068 308.2 155.152 306.376 155.236 304.888H156.964V310H157.96V304H154.348C154.276 305.584 154.216 307.432 154.12 308.392C154.036 309.208 153.556 309.172 153.124 309.172ZM163.884 308.008L162.888 307.996C162.888 308.956 162.288 309.292 161.664 309.292C160.824 309.292 160.164 308.644 160.152 307.06H163.812C163.848 306.844 163.86 306.616 163.86 306.412C163.86 305.032 163.152 303.88 161.628 303.88C159.924 303.88 159.108 305.272 159.108 307.048C159.108 308.752 159.864 310.12 161.604 310.12C162.984 310.12 163.848 309.328 163.884 308.008ZM161.58 304.696C162.372 304.696 162.852 305.236 162.852 306.304V306.412H160.164C160.224 305.392 160.716 304.696 161.58 304.696ZM167.396 310V304.912H169.317V304H164.445V304.912H166.365V310H167.396Z" fill="black" fill-opacity="0.8"/>
<path d="M125.824 376V370.828H128.164V376H129.184V370H124.804V376H125.824ZM130.744 371.776H131.716C131.596 371.116 131.992 370.672 132.772 370.672C133.504 370.672 133.888 371.092 133.888 371.968V372.196C132.412 372.328 130.444 372.436 130.444 374.416C130.444 375.268 130.972 376.12 132.208 376.12C133.228 376.12 133.72 375.544 133.96 374.812H134.068C133.996 375.22 133.876 375.748 133.876 375.904V376H134.896V372.04C134.896 370.684 134.38 369.88 132.88 369.88C131.452 369.88 130.672 370.66 130.744 371.776ZM132.58 375.352C131.908 375.352 131.428 374.908 131.428 374.26C131.428 373.48 131.884 372.916 133.888 372.772C133.912 373.132 133.912 373.504 133.888 373.864C133.828 374.716 133.324 375.352 132.58 375.352ZM140.867 373.696L139.871 373.684C139.931 374.956 139.271 375.316 138.707 375.316C137.795 375.316 137.243 374.536 137.243 373C137.243 371.548 137.759 370.708 138.683 370.708C139.403 370.708 139.859 371.212 139.847 372.232L140.855 372.244C140.927 370.756 140.039 369.88 138.683 369.88C136.883 369.88 136.151 371.368 136.151 373.048C136.151 374.836 136.883 376.12 138.683 376.12C140.111 376.12 140.891 375.124 140.867 373.696ZM143.039 376V370.828H145.379V376H146.399V370H142.019V376H143.039ZM150.086 376.12C151.682 376.12 152.63 374.992 152.63 373C152.63 371.008 151.682 369.88 150.086 369.88C148.49 369.88 147.542 371.008 147.542 373C147.542 374.992 148.49 376.12 150.086 376.12ZM150.086 375.292C149.258 375.292 148.646 374.548 148.646 373C148.646 371.476 149.258 370.696 150.086 370.696C150.902 370.696 151.526 371.476 151.526 373C151.526 374.548 150.902 375.292 150.086 375.292ZM156.521 376.12C156.785 376.12 157.073 376.072 157.385 375.916C157.925 375.64 158.405 375.064 158.621 374.236C158.717 373.864 158.777 373.456 158.777 373C158.777 372.544 158.717 372.136 158.621 371.764C158.369 370.78 157.673 369.94 156.521 369.94C155.525 369.94 154.973 370.468 154.733 371.392L154.625 371.38C154.697 370.948 154.805 370.396 154.805 370.096V370H153.773V378.136H154.805V375.964C154.805 375.664 154.697 375.112 154.625 374.68L154.733 374.668C154.973 375.592 155.525 376.12 156.521 376.12ZM156.269 375.268C155.417 375.268 154.853 374.428 154.853 373C154.853 371.596 155.417 370.732 156.269 370.732C157.109 370.732 157.757 371.596 157.757 373C157.757 374.428 157.109 375.268 156.269 375.268ZM162.205 376V370.912H164.125V370H159.253V370.912H161.173V376H162.205ZM128.38 389.188L128.476 389.212C128.344 389.812 128.284 390.64 128.272 391.504L128.26 394H129.256V388H128.26L126.748 390.664C126.076 391.84 125.932 392.404 125.704 392.908L125.596 392.86C125.752 392.308 125.8 391.156 125.8 390.304V388H124.804V394H125.836L127.276 391.468C128.008 390.172 128.152 389.704 128.38 389.188ZM138.812 391.492H137.78C137.72 392.656 137.06 393.208 136.232 393.208C134.912 393.208 134.048 392.104 134.048 390.124C134.048 388.168 134.876 387.052 136.088 387.052C137.036 387.052 137.696 387.664 137.744 388.804H138.812C138.872 387.22 137.816 386.116 136.1 386.116C134.036 386.116 132.92 387.808 132.92 390.124C132.92 392.476 134 394.132 136.124 394.132C136.544 394.132 136.952 394.072 137.396 393.868C138.14 393.52 138.752 392.716 138.812 391.492ZM144.852 386.224V389.644H141.264V386.224H140.208V394H141.264V390.64H144.852V394H145.908V386.224H144.852ZM148.865 393.112C149.009 392.272 149.045 391.48 149.045 390.7V386.224H148.001V394H149.381L151.769 389.32C152.249 388.372 152.537 387.736 152.765 387.004L152.861 387.028C152.633 388.072 152.633 388.852 152.633 389.368V394H153.677V386.224H152.309L150.065 390.64C149.465 391.816 149.357 392.104 148.961 393.136L148.865 393.112ZM154.883 393.208L155.015 394.108C156.911 394.084 157.223 393.412 157.307 392.02C157.331 391.396 157.439 389.152 157.511 387.28H159.731V394H160.799V386.224H156.515C156.419 388.276 156.371 390.796 156.251 392.284C156.179 393.136 155.615 393.196 154.883 393.208ZM168.308 391.492H167.276C167.216 392.656 166.556 393.208 165.728 393.208C164.408 393.208 163.544 392.104 163.544 390.124C163.544 388.168 164.372 387.052 165.584 387.052C166.532 387.052 167.192 387.664 167.24 388.804H168.308C168.368 387.22 167.312 386.116 165.596 386.116C163.532 386.116 162.416 387.808 162.416 390.124C162.416 392.476 163.496 394.132 165.62 394.132C166.04 394.132 166.448 394.072 166.892 393.868C167.636 393.52 168.248 392.716 168.308 391.492Z" fill="black" fill-opacity="0.8"/>
<path d="M125.824 227V224.348H126.376C126.976 224.348 127.192 224.672 127.372 225.212C127.6 225.908 127.78 226.676 128.032 227H129.232C128.968 226.7 128.824 226.376 128.656 225.956C128.5 225.56 128.356 225.092 128.272 224.876C128.068 224.336 127.804 224.108 127.192 224V223.892C127.708 223.784 128.008 223.58 128.248 223.1C128.392 222.812 128.5 222.488 128.668 221.996C128.776 221.684 128.944 221.24 129.184 221H128.032C127.756 221.372 127.564 222.26 127.324 222.884C127.132 223.388 126.892 223.604 126.376 223.604H125.824V221H124.804V227H125.824ZM130.303 227H131.287H132.619C133.051 227 133.387 226.976 133.711 226.868C134.467 226.628 134.863 226.052 134.863 225.32C134.863 224.744 134.491 224.012 133.399 223.94V223.856C134.263 223.664 134.635 223.028 134.635 222.488C134.635 221.408 133.795 221 132.883 221H131.287H130.303V227ZM131.287 226.208V224.336H132.739C133.291 224.336 133.855 224.6 133.855 225.26C133.855 225.92 133.375 226.208 132.703 226.208H131.287ZM131.287 223.58V221.768H132.667C133.183 221.768 133.639 222.02 133.639 222.632C133.639 223.256 133.111 223.58 132.523 223.58H131.287ZM136.123 222.776H137.095C136.975 222.116 137.371 221.672 138.151 221.672C138.883 221.672 139.267 222.092 139.267 222.968V223.196C137.791 223.328 135.823 223.436 135.823 225.416C135.823 226.268 136.351 227.12 137.587 227.12C138.607 227.12 139.099 226.544 139.339 225.812H139.447C139.375 226.22 139.255 226.748 139.255 226.904V227H140.275V223.04C140.275 221.684 139.759 220.88 138.259 220.88C136.831 220.88 136.051 221.66 136.123 222.776ZM137.959 226.352C137.287 226.352 136.807 225.908 136.807 225.26C136.807 224.48 137.263 223.916 139.267 223.772C139.291 224.132 139.291 224.504 139.267 224.864C139.207 225.716 138.703 226.352 137.959 226.352ZM144.626 227.12C144.89 227.12 145.178 227.072 145.49 226.916C146.03 226.64 146.51 226.064 146.726 225.236C146.822 224.864 146.882 224.456 146.882 224C146.882 223.544 146.822 223.136 146.726 222.764C146.474 221.78 145.778 220.94 144.626 220.94C143.63 220.94 143.078 221.468 142.838 222.392L142.73 222.38C142.802 221.948 142.91 221.396 142.91 221.096V221H141.878V229.136H142.91V226.964C142.91 226.664 142.802 226.112 142.73 225.68L142.838 225.668C143.078 226.592 143.63 227.12 144.626 227.12ZM144.374 226.268C143.522 226.268 142.958 225.428 142.958 224C142.958 222.596 143.522 221.732 144.374 221.732C145.214 221.732 145.862 222.596 145.862 224C145.862 225.428 145.214 226.268 144.374 226.268ZM150.311 227V221.912H152.231V221H147.359V221.912H149.279V227H150.311ZM156.739 222.188L156.835 222.212C156.703 222.812 156.643 223.64 156.631 224.504L156.619 227H157.615V221H156.619L155.107 223.664C154.435 224.84 154.291 225.404 154.063 225.908L153.955 225.86C154.111 225.308 154.159 224.156 154.159 223.304V221H153.163V227H154.195L155.635 224.468C156.367 223.172 156.511 222.704 156.739 222.188ZM161.97 227.12C162.234 227.12 162.522 227.072 162.834 226.916C163.374 226.64 163.854 226.064 164.07 225.236C164.166 224.864 164.226 224.456 164.226 224C164.226 223.544 164.166 223.136 164.07 222.764C163.818 221.78 163.122 220.94 161.97 220.94C160.974 220.94 160.422 221.468 160.182 222.392L160.074 222.38C160.146 221.948 160.254 221.396 160.254 221.096V221H159.222V229.136H160.254V226.964C160.254 226.664 160.146 226.112 160.074 225.68L160.182 225.668C160.422 226.592 160.974 227.12 161.97 227.12ZM161.718 226.268C160.866 226.268 160.302 225.428 160.302 224C160.302 222.596 160.866 221.732 161.718 221.732C162.558 221.732 163.206 222.596 163.206 224C163.206 225.428 162.558 226.268 161.718 226.268ZM165.444 222.776H166.416C166.296 222.116 166.692 221.672 167.472 221.672C168.204 221.672 168.588 222.092 168.588 222.968V223.196C167.112 223.328 165.144 223.436 165.144 225.416C165.144 226.268 165.672 227.12 166.908 227.12C167.928 227.12 168.42 226.544 168.66 225.812H168.768C168.696 226.22 168.576 226.748 168.576 226.904V227H169.596V223.04C169.596 221.684 169.08 220.88 167.58 220.88C166.152 220.88 165.372 221.66 165.444 222.776ZM167.28 226.352C166.608 226.352 166.128 225.908 166.128 225.26C166.128 224.48 166.584 223.916 168.588 223.772C168.612 224.132 168.612 224.504 168.588 224.864C168.528 225.716 168.024 226.352 167.28 226.352ZM128.38 240.188L128.476 240.212C128.344 240.812 128.284 241.64 128.272 242.504L128.26 245H129.256V239H128.26L126.748 241.664C126.076 242.84 125.932 243.404 125.704 243.908L125.596 243.86C125.752 243.308 125.8 242.156 125.8 241.304V239H124.804V245H125.836L127.276 242.468C128.008 241.172 128.152 240.704 128.38 240.188ZM130.203 244.172L130.215 245.084C131.643 245.084 131.979 244.592 132.075 243.764C132.147 243.2 132.231 241.376 132.315 239.888H134.043V245H135.039V239H131.427C131.355 240.584 131.295 242.432 131.199 243.392C131.115 244.208 130.635 244.172 130.203 244.172ZM140.228 240.188L140.324 240.212C140.192 240.812 140.132 241.64 140.12 242.504L140.108 245H141.104V239H140.108L138.596 241.664C137.924 242.84 137.78 243.404 137.552 243.908L137.444 243.86C137.6 243.308 137.648 242.156 137.648 241.304V239H136.652V245H137.684L139.124 242.468C139.856 241.172 140 240.704 140.228 240.188ZM149.171 244.196V239H145.547C145.511 240.548 145.463 242.3 145.367 242.792C145.199 243.668 144.935 244.196 144.359 244.196H144.251V246.608H145.115V245H149.135V246.608H149.999V244.196H149.171ZM145.415 244.196V244.112C145.871 243.848 146.135 243.344 146.231 242.564C146.279 242.168 146.339 241.112 146.387 239.936H148.175V244.196H145.415ZM153.133 245.12C154.729 245.12 155.677 243.992 155.677 242C155.677 240.008 154.729 238.88 153.133 238.88C151.537 238.88 150.589 240.008 150.589 242C150.589 243.992 151.537 245.12 153.133 245.12ZM153.133 244.292C152.305 244.292 151.693 243.548 151.693 242C151.693 240.476 152.305 239.696 153.133 239.696C153.949 239.696 154.573 240.476 154.573 242C154.573 243.548 153.949 244.292 153.133 244.292ZM163.117 239H161.593L160.573 242.24C160.369 242.888 160.165 243.704 160.045 244.232H160.033C159.877 243.452 159.625 242.648 159.493 242.204L158.545 239H157.057L156.781 245H157.705L157.813 241.328C157.825 240.908 157.825 240.488 157.789 239.852H157.909C158.029 240.476 158.149 240.86 158.341 241.496L159.349 244.952H160.609L161.545 241.904C161.845 240.908 162.001 240.428 162.085 239.852H162.205C162.217 240.44 162.193 240.956 162.205 241.424L162.337 245H163.357L163.117 239Z" fill="black" fill-opacity="0.8"/>
<path d="M226.644 153.076V153.016C228.132 152.416 230.472 150.724 230.472 148.504C230.472 146.872 229.476 146.08 228.096 146.08C226.8 146.08 225.756 146.86 225.756 148.156C225.756 148.408 225.804 148.612 225.888 148.804H226.896C226.848 148.576 226.824 148.384 226.824 148.192C226.824 147.328 227.352 147.04 228.036 147.04C228.768 147.04 229.356 147.448 229.356 148.6C229.356 150.088 228.096 151.756 225.936 152.86V154H230.436V153.076H226.644ZM236.484 154.132C238.032 154.132 238.98 152.584 238.956 150.124C238.968 147.664 238.02 146.116 236.496 146.116C234.948 146.116 233.988 147.664 234 150.124C233.988 152.584 234.948 154.132 236.484 154.132ZM236.472 153.244C235.608 153.244 235.068 152.092 235.068 150.124C235.068 148.18 235.608 147.016 236.472 147.016C237.336 147.016 237.876 148.18 237.876 150.124C237.888 152.092 237.336 153.244 236.472 153.244ZM242.718 154.132C244.266 154.132 245.214 152.584 245.19 150.124C245.202 147.664 244.254 146.116 242.73 146.116C241.182 146.116 240.222 147.664 240.234 150.124C240.222 152.584 241.182 154.132 242.718 154.132ZM242.706 153.244C241.842 153.244 241.302 152.092 241.302 150.124C241.302 148.18 241.842 147.016 242.706 147.016C243.57 147.016 244.11 148.18 244.11 150.124C244.122 152.092 243.57 153.244 242.706 153.244ZM248.952 154.132C250.5 154.132 251.448 152.584 251.424 150.124C251.436 147.664 250.488 146.116 248.964 146.116C247.416 146.116 246.456 147.664 246.468 150.124C246.456 152.584 247.416 154.132 248.952 154.132ZM248.94 153.244C248.076 153.244 247.536 152.092 247.536 150.124C247.536 148.18 248.076 147.016 248.94 147.016C249.804 147.016 250.344 148.18 250.344 150.124C250.356 152.092 249.804 153.244 248.94 153.244ZM257.472 154.132C259.02 154.132 259.968 152.584 259.944 150.124C259.956 147.664 259.008 146.116 257.484 146.116C255.936 146.116 254.976 147.664 254.988 150.124C254.976 152.584 255.936 154.132 257.472 154.132ZM257.46 153.244C256.596 153.244 256.056 152.092 256.056 150.124C256.056 148.18 256.596 147.016 257.46 147.016C258.324 147.016 258.864 148.18 258.864 150.124C258.876 152.092 258.324 153.244 257.46 153.244ZM263.706 154.132C265.254 154.132 266.202 152.584 266.178 150.124C266.19 147.664 265.242 146.116 263.718 146.116C262.17 146.116 261.21 147.664 261.222 150.124C261.21 152.584 262.17 154.132 263.706 154.132ZM263.694 153.244C262.83 153.244 262.29 152.092 262.29 150.124C262.29 148.18 262.83 147.016 263.694 147.016C264.558 147.016 265.098 148.18 265.098 150.124C265.11 152.092 264.558 153.244 263.694 153.244ZM269.941 154.132C271.489 154.132 272.437 152.584 272.413 150.124C272.425 147.664 271.477 146.116 269.953 146.116C268.405 146.116 267.445 147.664 267.457 150.124C267.445 152.584 268.405 154.132 269.941 154.132ZM269.929 153.244C269.065 153.244 268.525 152.092 268.525 150.124C268.525 148.18 269.065 147.016 269.929 147.016C270.793 147.016 271.333 148.18 271.333 150.124C271.345 152.092 270.793 153.244 269.929 153.244ZM279.84 151.756H277.824V151.264H278.016C278.628 151.264 280.092 151.264 280.824 150.196C281.088 149.812 281.256 149.392 281.256 148.804C281.256 147.376 280.344 146.752 279.624 146.572C279.084 146.44 278.628 146.44 278.34 146.44H276.792V150.448H275.88V151.252H276.708V151.264H276.792V151.756H275.88V152.512H276.792V154H277.824V152.512H279.84V151.756ZM278.232 147.316C278.724 147.316 278.964 147.328 279.252 147.436C279.816 147.652 280.152 148.156 280.152 148.828C280.152 149.536 279.816 150.052 279.276 150.292C279 150.412 278.652 150.448 278.28 150.448H277.824V147.316H278.232Z" fill="black" fill-opacity="0.8"/>
<path d="M229.98 309.196V304H226.356C226.32 305.548 226.272 307.3 226.176 307.792C226.008 308.668 225.744 309.196 225.168 309.196H225.06V311.608H225.924V310H229.944V311.608H230.808V309.196H229.98ZM226.224 309.196V309.112C226.68 308.848 226.944 308.344 227.04 307.564C227.088 307.168 227.148 306.112 227.196 304.936H228.984V309.196H226.224ZM233.941 310.12C235.537 310.12 236.485 308.992 236.485 307C236.485 305.008 235.537 303.88 233.941 303.88C232.345 303.88 231.397 305.008 231.397 307C231.397 308.992 232.345 310.12 233.941 310.12ZM233.941 309.292C233.113 309.292 232.501 308.548 232.501 307C232.501 305.476 233.113 304.696 233.941 304.696C234.757 304.696 235.381 305.476 235.381 307C235.381 308.548 234.757 309.292 233.941 309.292ZM240.175 304.66H241.219C241.183 304.48 241.171 304.312 241.171 304.156C241.171 303.292 241.711 302.956 242.395 302.956C243.103 302.956 243.667 303.268 243.667 304.216C243.667 305.14 243.019 305.5 242.683 305.5H241.891V306.544H242.683C243.019 306.544 243.667 306.952 243.667 307.912C243.667 308.86 243.091 309.268 242.383 309.268C241.651 309.268 241.075 308.944 241.075 308.08C241.075 307.936 241.087 307.792 241.111 307.636H240.043C240.019 307.804 240.007 307.96 240.007 308.104C240.007 309.46 240.811 310.132 242.311 310.132C243.643 310.132 244.747 309.508 244.747 308.02C244.747 307.072 244.267 306.4 243.439 306.064V305.932C244.243 305.632 244.747 305.068 244.747 304.12C244.747 302.704 243.763 302.092 242.479 302.092C241.123 302.092 240.127 302.776 240.127 304.132C240.127 304.288 240.139 304.468 240.175 304.66ZM247.89 309.172L247.902 310.084C249.33 310.084 249.666 309.592 249.762 308.764C249.834 308.2 249.918 306.376 250.002 304.888H251.73V310H252.726V304H249.114C249.042 305.584 248.982 307.432 248.886 308.392C248.802 309.208 248.322 309.172 247.89 309.172ZM258.65 308.008L257.654 307.996C257.654 308.956 257.054 309.292 256.43 309.292C255.59 309.292 254.93 308.644 254.918 307.06H258.578C258.614 306.844 258.626 306.616 258.626 306.412C258.626 305.032 257.918 303.88 256.394 303.88C254.69 303.88 253.874 305.272 253.874 307.048C253.874 308.752 254.63 310.12 256.37 310.12C257.75 310.12 258.614 309.328 258.65 308.008ZM256.346 304.696C257.138 304.696 257.618 305.236 257.618 306.304V306.412H254.93C254.99 305.392 255.482 304.696 256.346 304.696ZM262.162 310V304.912H264.082V304H259.21V304.912H261.13V310H262.162Z" fill="black" fill-opacity="0.8"/>
<path d="M226.824 382V376.828H229.164V382H230.184V376H225.804V382H226.824ZM231.744 377.776H232.716C232.596 377.116 232.992 376.672 233.772 376.672C234.504 376.672 234.888 377.092 234.888 377.968V378.196C233.412 378.328 231.444 378.436 231.444 380.416C231.444 381.268 231.972 382.12 233.208 382.12C234.228 382.12 234.72 381.544 234.96 380.812H235.068C234.996 381.22 234.876 381.748 234.876 381.904V382H235.896V378.04C235.896 376.684 235.38 375.88 233.88 375.88C232.452 375.88 231.672 376.66 231.744 377.776ZM233.58 381.352C232.908 381.352 232.428 380.908 232.428 380.26C232.428 379.48 232.884 378.916 234.888 378.772C234.912 379.132 234.912 379.504 234.888 379.864C234.828 380.716 234.324 381.352 233.58 381.352ZM241.867 379.696L240.871 379.684C240.931 380.956 240.271 381.316 239.707 381.316C238.795 381.316 238.243 380.536 238.243 379C238.243 377.548 238.759 376.708 239.683 376.708C240.403 376.708 240.859 377.212 240.847 378.232L241.855 378.244C241.927 376.756 241.039 375.88 239.683 375.88C237.883 375.88 237.151 377.368 237.151 379.048C237.151 380.836 237.883 382.12 239.683 382.12C241.111 382.12 241.891 381.124 241.867 379.696ZM244.039 382V376.828H246.379V382H247.399V376H243.019V382H244.039ZM251.086 382.12C252.682 382.12 253.63 380.992 253.63 379C253.63 377.008 252.682 375.88 251.086 375.88C249.49 375.88 248.542 377.008 248.542 379C248.542 380.992 249.49 382.12 251.086 382.12ZM251.086 381.292C250.258 381.292 249.646 380.548 249.646 379C249.646 377.476 250.258 376.696 251.086 376.696C251.902 376.696 252.526 377.476 252.526 379C252.526 380.548 251.902 381.292 251.086 381.292ZM257.521 382.12C257.785 382.12 258.073 382.072 258.385 381.916C258.925 381.64 259.405 381.064 259.621 380.236C259.717 379.864 259.777 379.456 259.777 379C259.777 378.544 259.717 378.136 259.621 377.764C259.369 376.78 258.673 375.94 257.521 375.94C256.525 375.94 255.973 376.468 255.733 377.392L255.625 377.38C255.697 376.948 255.805 376.396 255.805 376.096V376H254.773V384.136H255.805V381.964C255.805 381.664 255.697 381.112 255.625 380.68L255.733 380.668C255.973 381.592 256.525 382.12 257.521 382.12ZM257.269 381.268C256.417 381.268 255.853 380.428 255.853 379C255.853 377.596 256.417 376.732 257.269 376.732C258.109 376.732 258.757 377.596 258.757 379C258.757 380.428 258.109 381.268 257.269 381.268ZM263.205 382V376.912H265.125V376H260.253V376.912H262.173V382H263.205Z" fill="black" fill-opacity="0.8"/>
<line x1="18" y1="50.5" x2="305" y2="50.5" stroke="black" stroke-opacity="0.08"/>
<line x1="18" y1="116.5" x2="305" y2="116.5" stroke="black" stroke-opacity="0.08"/>
<line x1="18" y1="272.5" x2="305" y2="272.5" stroke="black" stroke-opacity="0.08"/>
<line x1="18" y1="338.5" x2="305" y2="338.5" stroke="black" stroke-opacity="0.08"/>
<line x1="18" y1="190.5" x2="305" y2="190.5" stroke="black" stroke-opacity="0.08"/>
<path d="M226.824 236V233.396H229.344V236H230.364V230H229.344V232.472H226.824V230H225.804V236H226.824ZM236.279 234.008L235.283 233.996C235.283 234.956 234.683 235.292 234.059 235.292C233.219 235.292 232.559 234.644 232.547 233.06H236.207C236.243 232.844 236.255 232.616 236.255 232.412C236.255 231.032 235.547 229.88 234.023 229.88C232.319 229.88 231.503 231.272 231.503 233.048C231.503 234.752 232.259 236.12 233.999 236.12C235.379 236.12 236.243 235.328 236.279 234.008ZM233.975 230.696C234.767 230.696 235.247 231.236 235.247 232.304V232.412H232.559C232.619 231.392 233.111 230.696 233.975 230.696ZM239.791 236V230.912H241.711V230H236.839V230.912H238.759V236H239.791Z" fill="black" fill-opacity="0.8"/>
<path d="M228 85.12C229.596 85.12 230.544 83.992 230.544 82C230.544 80.008 229.596 78.88 228 78.88C226.404 78.88 225.456 80.008 225.456 82C225.456 83.992 226.404 85.12 228 85.12ZM228 84.292C227.172 84.292 226.56 83.548 226.56 82C226.56 80.476 227.172 79.696 228 79.696C228.816 79.696 229.44 80.476 229.44 82C229.44 83.548 228.816 84.292 228 84.292ZM233.967 85V79.912H235.887V79H231.015V79.912H232.935V85H233.967ZM242.537 81.028V80.92C243.317 80.596 243.857 80.128 243.857 79.132C243.857 77.8 242.789 77.08 241.421 77.08C240.053 77.08 238.985 77.8 238.985 79.132C238.985 80.128 239.525 80.596 240.305 80.92V81.028C239.429 81.316 238.829 82 238.829 83.02C238.829 84.412 240.029 85.12 241.385 85.12C242.693 85.12 244.013 84.412 244.013 83.02C244.013 82 243.413 81.316 242.537 81.028ZM241.421 77.944C242.105 77.944 242.801 78.328 242.801 79.264C242.801 80.2 242.093 80.56 241.589 80.572H241.253C240.749 80.572 240.041 80.2 240.041 79.264C240.041 78.328 240.737 77.944 241.421 77.944ZM241.445 84.256C240.677 84.256 239.921 83.872 239.921 82.888C239.921 81.892 240.725 81.472 241.193 81.472H241.649C242.117 81.472 242.921 81.892 242.921 82.888C242.921 83.872 242.165 84.256 241.445 84.256ZM246.131 83.332C245.759 83.332 245.435 83.644 245.435 84.196C245.435 84.784 245.747 85.084 246.119 85.084C246.119 85.348 245.819 86.02 245.579 86.356L245.975 86.464C246.299 86.164 246.815 85.132 246.815 84.268C246.815 83.572 246.491 83.332 246.131 83.332ZM250.423 82.312C251.203 82.312 251.827 81.976 252.211 81.22L252.307 81.232C252.295 82.444 251.935 84.256 250.579 84.256C250.003 84.256 249.595 83.896 249.619 83.26H248.539C248.443 84.364 249.223 85.144 250.483 85.144C252.439 85.144 253.255 83.32 253.255 80.788C253.255 78.148 252.223 77.164 250.747 77.164C249.427 77.164 248.287 78.052 248.287 79.828C248.287 81.592 249.439 82.312 250.423 82.312ZM250.723 78.064C251.503 78.064 252.115 78.748 252.115 79.768C252.115 80.896 251.515 81.508 250.711 81.508C249.991 81.508 249.355 81.004 249.355 79.756C249.355 78.568 249.991 78.064 250.723 78.064ZM261.942 77.224L257.502 85H258.33L262.77 77.224H261.942ZM258.354 80.608C258.57 80.608 258.786 80.572 259.014 80.488C259.41 80.332 259.758 80.008 259.914 79.552C259.986 79.348 260.022 79.108 260.022 78.856C260.022 78.604 259.986 78.376 259.914 78.172C259.758 77.704 259.41 77.38 259.014 77.224C258.786 77.14 258.57 77.116 258.354 77.116C258.138 77.116 257.91 77.152 257.682 77.248C257.286 77.392 256.962 77.704 256.782 78.172C256.71 78.376 256.674 78.604 256.674 78.856C256.674 79.108 256.71 79.348 256.782 79.552C256.938 80.008 257.286 80.332 257.682 80.488C257.91 80.572 258.126 80.608 258.354 80.608ZM258.354 79.984C257.874 79.984 257.514 79.624 257.514 78.856C257.514 78.112 257.874 77.728 258.354 77.728C258.822 77.728 259.182 78.112 259.182 78.856C259.182 79.624 258.822 79.984 258.354 79.984ZM261.954 85.096C262.17 85.096 262.386 85.06 262.614 84.976C263.01 84.832 263.358 84.496 263.514 84.04C263.586 83.836 263.622 83.596 263.622 83.344C263.622 83.092 263.586 82.864 263.514 82.66C263.346 82.192 263.01 81.856 262.614 81.712C262.386 81.628 262.17 81.604 261.954 81.604C261.738 81.604 261.51 81.64 261.282 81.736C260.898 81.904 260.55 82.192 260.382 82.66C260.31 82.864 260.274 83.092 260.274 83.344C260.274 83.596 260.31 83.836 260.382 84.04C260.538 84.496 260.886 84.832 261.282 84.976C261.51 85.06 261.726 85.096 261.954 85.096ZM261.954 84.472C261.474 84.472 261.114 84.112 261.114 83.344C261.114 82.6 261.474 82.216 261.954 82.216C262.422 82.216 262.782 82.6 262.782 83.344C262.782 84.112 262.422 84.472 261.954 84.472Z" fill="black" fill-opacity="0.8"/>
<path d="M25.45 150L24.76 143.52H23.62L21.95 149.08L20.22 143.52H19.07L18.4 150H19.24L19.59 146.51C19.67 145.74 19.65 145.01 19.6 144.5H19.72C19.76 144.79 19.86 145.38 20.09 146.09L21.38 150H22.38L23.65 146.09C23.87 145.4 23.98 144.82 24.02 144.5H24.14C24.1 145.03 24.11 145.75 24.18 146.51L24.51 150H25.45ZM26.4816 146.48H27.2916C27.1916 145.93 27.5216 145.56 28.1716 145.56C28.7816 145.56 29.1016 145.91 29.1016 146.64V146.83C27.8716 146.94 26.2316 147.03 26.2316 148.68C26.2316 149.39 26.6716 150.1 27.7016 150.1C28.5516 150.1 28.9616 149.62 29.1616 149.01H29.2516C29.1916 149.35 29.0916 149.79 29.0916 149.92V150H29.9416V146.7C29.9416 145.57 29.5116 144.9 28.2616 144.9C27.0716 144.9 26.4216 145.55 26.4816 146.48ZM28.0116 149.46C27.4516 149.46 27.0516 149.09 27.0516 148.55C27.0516 147.9 27.4316 147.43 29.1016 147.31C29.1216 147.61 29.1216 147.92 29.1016 148.22C29.0516 148.93 28.6316 149.46 28.0116 149.46ZM32.1274 150V147.79H32.5874C33.0874 147.79 33.2674 148.06 33.4174 148.51C33.6074 149.09 33.7574 149.73 33.9674 150H34.9674C34.7474 149.75 34.6274 149.48 34.4874 149.13C34.3574 148.8 34.2374 148.41 34.1674 148.23C33.9974 147.78 33.7774 147.59 33.2674 147.5V147.41C33.6974 147.32 33.9474 147.15 34.1474 146.75C34.2674 146.51 34.3574 146.24 34.4974 145.83C34.5874 145.57 34.7274 145.2 34.9274 145H33.9674C33.7374 145.31 33.5774 146.05 33.3774 146.57C33.2174 146.99 33.0174 147.17 32.5874 147.17H32.1274V145H31.2774V150H32.1274ZM39.2827 148.08L38.4527 148.07C38.5027 149.13 37.9527 149.43 37.4827 149.43C36.7227 149.43 36.2627 148.78 36.2627 147.5C36.2627 146.29 36.6927 145.59 37.4627 145.59C38.0627 145.59 38.4427 146.01 38.4327 146.86L39.2727 146.87C39.3327 145.63 38.5927 144.9 37.4627 144.9C35.9627 144.9 35.3527 146.14 35.3527 147.54C35.3527 149.03 35.9627 150.1 37.4627 150.1C38.6527 150.1 39.3027 149.27 39.2827 148.08ZM43.2223 145.99L43.3023 146.01C43.1923 146.51 43.1423 147.2 43.1323 147.92L43.1223 150H43.9523V145H43.1223L41.8623 147.22C41.3023 148.2 41.1823 148.67 40.9923 149.09L40.9023 149.05C41.0323 148.59 41.0723 147.63 41.0723 146.92V145H40.2423V150H41.1023L42.3023 147.89C42.9123 146.81 43.0323 146.42 43.2223 145.99ZM50.4411 145H49.1711L48.3211 147.7C48.1511 148.24 47.9811 148.92 47.8811 149.36H47.8711C47.7411 148.71 47.5311 148.04 47.4211 147.67L46.6311 145H45.3911L45.1611 150H45.9311L46.0211 146.94C46.0311 146.59 46.0311 146.24 46.0011 145.71H46.1011C46.2011 146.23 46.3011 146.55 46.4611 147.08L47.3011 149.96H48.3511L49.1311 147.42C49.3811 146.59 49.5111 146.19 49.5811 145.71H49.6811C49.6911 146.2 49.6711 146.63 49.6811 147.02L49.7911 150H50.6411L50.4411 145ZM51.8136 146.48H52.6236C52.5236 145.93 52.8536 145.56 53.5036 145.56C54.1136 145.56 54.4336 145.91 54.4336 146.64V146.83C53.2036 146.94 51.5636 147.03 51.5636 148.68C51.5636 149.39 52.0036 150.1 53.0336 150.1C53.8836 150.1 54.2936 149.62 54.4936 149.01H54.5836C54.5236 149.35 54.4236 149.79 54.4236 149.92V150H55.2736V146.7C55.2736 145.57 54.8436 144.9 53.5936 144.9C52.4036 144.9 51.7536 145.55 51.8136 146.48ZM53.3436 149.46C52.7836 149.46 52.3836 149.09 52.3836 148.55C52.3836 147.9 52.7636 147.43 54.4336 147.31C54.4536 147.61 54.4536 147.92 54.4336 148.22C54.3836 148.93 53.9636 149.46 53.3436 149.46ZM56.0595 149.31L56.0695 150.07C57.2595 150.07 57.5395 149.66 57.6195 148.97C57.6795 148.5 57.7495 146.98 57.8195 145.74H59.2595V150H60.0895V145H57.0795C57.0195 146.32 56.9695 147.86 56.8895 148.66C56.8195 149.34 56.4195 149.31 56.0595 149.31ZM62.2537 145H61.4337V150H63.1337C64.6737 150 65.0237 148.97 65.0237 148.4C65.0237 147.68 64.6637 147.18 64.1437 146.99C63.7837 146.86 63.5437 146.85 62.8637 146.85H62.2537V145ZM64.1537 148.4C64.1537 149.02 63.6737 149.29 63.0637 149.29H62.2537V147.51H63.1137C63.7737 147.51 64.1537 147.82 64.1537 148.4ZM66.8833 150V147.83H68.9833V150H69.8333V145H68.9833V147.06H66.8833V145H66.0333V150H66.8833ZM71.13 146.48H71.94C71.84 145.93 72.17 145.56 72.82 145.56C73.43 145.56 73.75 145.91 73.75 146.64V146.83C72.52 146.94 70.88 147.03 70.88 148.68C70.88 149.39 71.32 150.1 72.35 150.1C73.2 150.1 73.61 149.62 73.81 149.01H73.9C73.84 149.35 73.74 149.79 73.74 149.92V150H74.59V146.7C74.59 145.57 74.16 144.9 72.91 144.9C71.72 144.9 71.07 145.55 71.13 146.48ZM72.66 149.46C72.1 149.46 71.7 149.09 71.7 148.55C71.7 147.9 72.08 147.43 73.75 147.31C73.77 147.61 73.77 147.92 73.75 148.22C73.7 148.93 73.28 149.46 72.66 149.46ZM76.4759 146.52C76.4759 145.9 76.9159 145.66 77.5759 145.66H78.4359V147.42H77.6859C76.9759 147.42 76.4759 147.11 76.4759 146.52ZM75.4359 150H76.4459C76.5859 149.59 76.6859 149.07 76.7959 148.71C76.9559 148.18 77.1559 148.13 77.6659 148.13H78.4359V150H79.2559V145H77.7959C77.1159 145 76.8459 145.01 76.4959 145.15C75.9959 145.35 75.6359 145.8 75.6359 146.48C75.6359 147.07 75.9559 147.7 76.9959 147.69V147.83C76.4359 147.86 76.1359 148.12 75.9559 148.61C75.7959 149.05 75.6159 149.82 75.4359 150ZM22.31 163.08L21.48 163.07C21.53 164.13 20.98 164.43 20.51 164.43C19.75 164.43 19.29 163.78 19.29 162.5C19.29 161.29 19.72 160.59 20.49 160.59C21.09 160.59 21.47 161.01 21.46 161.86L22.3 161.87C22.36 160.63 21.62 159.9 20.49 159.9C18.99 159.9 18.38 161.14 18.38 162.54C18.38 164.03 18.99 165.1 20.49 165.1C21.68 165.1 22.33 164.27 22.31 163.08ZM26.781 160H25.891L25.221 162.32C24.941 163.28 24.811 163.93 24.781 164.1H24.711C24.651 163.76 24.611 163.49 24.271 162.41L23.521 160H22.621L24.271 164.91L23.711 166.75H24.551L25.121 164.89L26.781 160ZM32.5602 160H31.2902L30.4402 162.7C30.2702 163.24 30.1002 163.92 30.0002 164.36H29.9902C29.8602 163.71 29.6502 163.04 29.5402 162.67L28.7502 160H27.5102L27.2802 165H28.0502L28.1402 161.94C28.1502 161.59 28.1502 161.24 28.1202 160.71H28.2202C28.3202 161.23 28.4202 161.55 28.5802 162.08L29.4202 164.96H30.4702L31.2502 162.42C31.5002 161.59 31.6302 161.19 31.7002 160.71H31.8002C31.8102 161.2 31.7902 161.63 31.8002 162.02L31.9102 165H32.7602L32.5602 160ZM39.1227 160H37.8527L37.0027 162.7C36.8327 163.24 36.6627 163.92 36.5627 164.36H36.5527C36.4227 163.71 36.2127 163.04 36.1027 162.67L35.3127 160H34.0727L33.8427 165H34.6127L34.7027 161.94C34.7127 161.59 34.7127 161.24 34.6827 160.71H34.7827C34.8827 161.23 34.9827 161.55 35.1427 162.08L35.9827 164.96H37.0327L37.8127 162.42C38.0627 161.59 38.1927 161.19 38.2627 160.71H38.3627C38.3727 161.2 38.3527 161.63 38.3627 162.02L38.4727 165H39.3227L39.1227 160ZM40.4952 161.48H41.3052C41.2052 160.93 41.5352 160.56 42.1852 160.56C42.7952 160.56 43.1152 160.91 43.1152 161.64V161.83C41.8852 161.94 40.2452 162.03 40.2452 163.68C40.2452 164.39 40.6852 165.1 41.7152 165.1C42.5652 165.1 42.9752 164.62 43.1752 164.01H43.2652C43.2052 164.35 43.1052 164.79 43.1052 164.92V165H43.9552V161.7C43.9552 160.57 43.5252 159.9 42.2752 159.9C41.0852 159.9 40.4352 160.55 40.4952 161.48ZM42.0252 164.46C41.4652 164.46 41.0652 164.09 41.0652 163.55C41.0652 162.9 41.4452 162.43 43.1152 162.31C43.1352 162.61 43.1352 162.92 43.1152 163.22C43.0652 163.93 42.6452 164.46 42.0252 164.46Z" fill="black" fill-opacity="0.8"/>
<path d="M23.39 307.91H22.53C22.48 308.88 21.93 309.34 21.24 309.34C20.14 309.34 19.42 308.42 19.42 306.77C19.42 305.14 20.11 304.21 21.12 304.21C21.91 304.21 22.46 304.72 22.5 305.67H23.39C23.44 304.35 22.56 303.43 21.13 303.43C19.41 303.43 18.48 304.84 18.48 306.77C18.48 308.73 19.38 310.11 21.15 310.11C21.5 310.11 21.84 310.06 22.21 309.89C22.83 309.6 23.34 308.93 23.39 307.91ZM26.7608 310.1C26.9808 310.1 27.2208 310.06 27.4808 309.93C27.9308 309.7 28.3308 309.22 28.5108 308.53C28.5908 308.22 28.6408 307.88 28.6408 307.5C28.6408 307.12 28.5908 306.78 28.5108 306.47C28.3008 305.65 27.7208 304.95 26.7608 304.95C25.9308 304.95 25.4708 305.39 25.2708 306.16L25.1808 306.15C25.2408 305.79 25.3308 305.33 25.3308 305.08V305H24.4708V311.78H25.3308V309.97C25.3308 309.72 25.2408 309.26 25.1808 308.9L25.2708 308.89C25.4708 309.66 25.9308 310.1 26.7608 310.1ZM26.5508 309.39C25.8408 309.39 25.3708 308.69 25.3708 307.5C25.3708 306.33 25.8408 305.61 26.5508 305.61C27.2508 305.61 27.7908 306.33 27.7908 307.5C27.7908 308.69 27.2508 309.39 26.5508 309.39ZM31.5254 310.1C32.8554 310.1 33.6454 309.16 33.6454 307.5C33.6454 305.84 32.8554 304.9 31.5254 304.9C30.1954 304.9 29.4054 305.84 29.4054 307.5C29.4054 309.16 30.1954 310.1 31.5254 310.1ZM31.5254 309.41C30.8354 309.41 30.3254 308.79 30.3254 307.5C30.3254 306.23 30.8354 305.58 31.5254 305.58C32.2054 305.58 32.7254 306.23 32.7254 307.5C32.7254 308.79 32.2054 309.41 31.5254 309.41ZM35.4477 310V307.79H35.9077C36.4077 307.79 36.5877 308.06 36.7377 308.51C36.9277 309.09 37.0777 309.73 37.2877 310H38.2877C38.0677 309.75 37.9477 309.48 37.8077 309.13C37.6777 308.8 37.5577 308.41 37.4877 308.23C37.3177 307.78 37.0977 307.59 36.5877 307.5V307.41C37.0177 307.32 37.2677 307.15 37.4677 306.75C37.5877 306.51 37.6777 306.24 37.8177 305.83C37.9077 305.57 38.0477 305.2 38.2477 305H37.2877C37.0577 305.31 36.8977 306.05 36.6977 306.57C36.5377 306.99 36.3377 307.17 35.9077 307.17H35.4477V305H34.5977V310H35.4477ZM41.8149 310V307.79H42.2749C42.7749 307.79 42.9549 308.06 43.1049 308.51C43.2949 309.09 43.4449 309.73 43.6549 310H44.6549C44.4349 309.75 44.3149 309.48 44.1749 309.13C44.0449 308.8 43.9249 308.41 43.8549 308.23C43.6849 307.78 43.4649 307.59 42.9549 307.5V307.41C43.3849 307.32 43.6349 307.15 43.8349 306.75C43.9549 306.51 44.0449 306.24 44.1849 305.83C44.2749 305.57 44.4149 305.2 44.6149 305H43.6549C43.4249 305.31 43.2649 306.05 43.0649 306.57C42.9049 306.99 42.7049 307.17 42.2749 307.17H41.8149V305H40.9649V310H41.8149ZM47.7178 310.1C47.9378 310.1 48.1778 310.06 48.4378 309.93C48.8878 309.7 49.2878 309.22 49.4678 308.53C49.5478 308.22 49.5978 307.88 49.5978 307.5C49.5978 307.12 49.5478 306.78 49.4678 306.47C49.2578 305.65 48.6778 304.95 47.7178 304.95C46.8878 304.95 46.4278 305.39 46.2278 306.16L46.1378 306.15C46.1978 305.79 46.2878 305.33 46.2878 305.08V305H45.4278V311.78H46.2878V309.97C46.2878 309.72 46.1978 309.26 46.1378 308.9L46.2278 308.89C46.4278 309.66 46.8878 310.1 47.7178 310.1ZM47.5078 309.39C46.7978 309.39 46.3278 308.69 46.3278 307.5C46.3278 306.33 46.7978 305.61 47.5078 305.61C48.2078 305.61 48.7478 306.33 48.7478 307.5C48.7478 308.69 48.2078 309.39 47.5078 309.39ZM54.3424 308.34L53.5124 308.33C53.5124 309.13 53.0124 309.41 52.4924 309.41C51.7924 309.41 51.2424 308.87 51.2324 307.55H54.2824C54.3124 307.37 54.3224 307.18 54.3224 307.01C54.3224 305.86 53.7324 304.9 52.4624 304.9C51.0424 304.9 50.3624 306.06 50.3624 307.54C50.3624 308.96 50.9924 310.1 52.4424 310.1C53.5924 310.1 54.3124 309.44 54.3424 308.34ZM52.4224 305.58C53.0824 305.58 53.4824 306.03 53.4824 306.92V307.01H51.2424C51.2924 306.16 51.7024 305.58 52.4224 305.58ZM58.9469 309.33V305H55.9269C55.8969 306.29 55.8569 307.75 55.7769 308.16C55.6369 308.89 55.4169 309.33 54.9369 309.33H54.8469V311.34H55.5669V310H58.9169V311.34H59.6369V309.33H58.9469ZM55.8169 309.33V309.26C56.1969 309.04 56.4169 308.62 56.4969 307.97C56.5369 307.64 56.5869 306.76 56.6269 305.78H58.1169V309.33H55.8169ZM63.398 305.99L63.478 306.01C63.368 306.51 63.318 307.2 63.308 307.92L63.298 310H64.128V305H63.298L62.038 307.22C61.478 308.2 61.358 308.67 61.168 309.09L61.078 309.05C61.208 308.59 61.248 307.63 61.248 306.92V305H60.418V310H61.278L62.478 307.89C63.088 306.81 63.208 306.42 63.398 305.99ZM67.3669 310V305.76H68.9669V305H64.9069V305.76H66.5069V310H67.3669ZM69.6163 306.48H70.4263C70.3263 305.93 70.6563 305.56 71.3063 305.56C71.9163 305.56 72.2363 305.91 72.2363 306.64V306.83C71.0063 306.94 69.3663 307.03 69.3663 308.68C69.3663 309.39 69.8063 310.1 70.8363 310.1C71.6863 310.1 72.0963 309.62 72.2963 309.01H72.3863C72.3263 309.35 72.2263 309.79 72.2263 309.92V310H73.0763V306.7C73.0763 305.57 72.6463 304.9 71.3963 304.9C70.2063 304.9 69.5563 305.55 69.6163 306.48ZM71.1463 309.46C70.5863 309.46 70.1863 309.09 70.1863 308.55C70.1863 307.9 70.5663 307.43 72.2363 307.31C72.2563 307.61 72.2563 307.92 72.2363 308.22C72.1863 308.93 71.7663 309.46 71.1463 309.46Z" fill="black" fill-opacity="0.8"/>
<path d="M23.3 381.22V375.52H19.73C19.69 377.12 19.64 378.54 19.57 379.29C19.46 380.49 19.25 381.17 18.32 381.22H18.27V383.42H19.07V382H23.25V383.42H24.05V381.22H23.3ZM19.44 381.28V381.19C20.2 380.83 20.34 380 20.42 379.04C20.45 378.61 20.51 377.63 20.55 376.35H22.42V381.28H19.44ZM26.7988 382.1C28.1288 382.1 28.9188 381.16 28.9188 379.5C28.9188 377.84 28.1288 376.9 26.7988 376.9C25.4688 376.9 24.6788 377.84 24.6788 379.5C24.6788 381.16 25.4688 382.1 26.7988 382.1ZM26.7988 381.41C26.1088 381.41 25.5988 380.79 25.5988 379.5C25.5988 378.23 26.1088 377.58 26.7988 377.58C27.4788 377.58 27.9988 378.23 27.9988 379.5C27.9988 380.79 27.4788 381.41 26.7988 381.41ZM30.7212 382V379.79H31.1812C31.6812 379.79 31.8612 380.06 32.0112 380.51C32.2012 381.09 32.3512 381.73 32.5612 382H33.5612C33.3412 381.75 33.2212 381.48 33.0812 381.13C32.9512 380.8 32.8312 380.41 32.7612 380.23C32.5912 379.78 32.3712 379.59 31.8612 379.5V379.41C32.2912 379.32 32.5412 379.15 32.7412 378.75C32.8612 378.51 32.9512 378.24 33.0912 377.83C33.1812 377.57 33.3212 377.2 33.5212 377H32.5612C32.3312 377.31 32.1712 378.05 31.9712 378.57C31.8112 378.99 31.6112 379.17 31.1812 379.17H30.7212V377H29.8712V382H30.7212ZM37.9041 377H37.0141L36.3441 379.32C36.0641 380.28 35.9341 380.93 35.9041 381.1H35.8341C35.7741 380.76 35.7341 380.49 35.3941 379.41L34.6441 377H33.7441L35.3941 381.91L34.8341 383.75H35.6741L36.2441 381.89L37.9041 377ZM43.6833 377H42.4133L41.5633 379.7C41.3933 380.24 41.2233 380.92 41.1233 381.36H41.1133C40.9833 380.71 40.7733 380.04 40.6633 379.67L39.8733 377H38.6333L38.4033 382H39.1733L39.2633 378.94C39.2733 378.59 39.2733 378.24 39.2433 377.71H39.3433C39.4433 378.23 39.5433 378.55 39.7033 379.08L40.5433 381.96H41.5933L42.3733 379.42C42.6233 378.59 42.7533 378.19 42.8233 377.71H42.9233C42.9333 378.2 42.9133 378.63 42.9233 379.02L43.0333 382H43.8833L43.6833 377ZM48.7858 380.34L47.9558 380.33C47.9558 381.13 47.4558 381.41 46.9358 381.41C46.2358 381.41 45.6858 380.87 45.6758 379.55H48.7258C48.7558 379.37 48.7658 379.18 48.7658 379.01C48.7658 377.86 48.1758 376.9 46.9058 376.9C45.4858 376.9 44.8058 378.06 44.8058 379.54C44.8058 380.96 45.4358 382.1 46.8858 382.1C48.0358 382.1 48.7558 381.44 48.7858 380.34ZM46.8658 377.58C47.5258 377.58 47.9258 378.03 47.9258 378.92V379.01H45.6858C45.7358 378.16 46.1458 377.58 46.8658 377.58ZM50.6626 382V379.83H52.7626V382H53.6126V377H52.7626V379.06H50.6626V377H49.8126V382H50.6626ZM56.8493 382V377.76H58.4493V377H54.3893V377.76H55.9893V382H56.8493ZM60.0466 377H59.2266V382H60.9266C62.4666 382 62.8166 380.97 62.8166 380.4C62.8166 379.68 62.4566 379.18 61.9366 378.99C61.5766 378.86 61.3366 378.85 60.6566 378.85H60.0466V377ZM64.3566 382V377H63.5066V382H64.3566ZM61.9466 380.4C61.9466 381.02 61.4666 381.29 60.8566 381.29H60.0466V379.51H60.9066C61.5666 379.51 61.9466 379.82 61.9466 380.4Z" fill="black" fill-opacity="0.8"/>
<path d="M18.61 229.25H19.49C19.41 228.45 19.84 228.15 20.58 228.15C21.4 228.15 21.71 228.62 21.71 229.24C21.71 229.94 21.31 230.31 20.72 230.31H20.03V231.16H20.75C21.4 231.16 21.91 231.52 21.91 232.26C21.91 233.01 21.42 233.37 20.7 233.37C19.94 233.37 19.31 233.13 19.46 232.25H18.57C18.43 233.53 19.21 234.09 20.58 234.09C21.92 234.09 22.82 233.52 22.82 232.28C22.82 231.5 22.43 230.92 21.72 230.72V230.58C22.27 230.34 22.63 229.82 22.63 229.17C22.63 227.95 21.78 227.41 20.54 227.42C19.39 227.43 18.51 228.05 18.61 229.25ZM24.0792 230.48H24.8892C24.7892 229.93 25.1192 229.56 25.7692 229.56C26.3792 229.56 26.6992 229.91 26.6992 230.64V230.83C25.4692 230.94 23.8292 231.03 23.8292 232.68C23.8292 233.39 24.2692 234.1 25.2992 234.1C26.1492 234.1 26.5592 233.62 26.7592 233.01H26.8492C26.7892 233.35 26.6892 233.79 26.6892 233.92V234H27.5392V230.7C27.5392 229.57 27.1092 228.9 25.8592 228.9C24.6692 228.9 24.0192 229.55 24.0792 230.48ZM25.6092 233.46C25.0492 233.46 24.6492 233.09 24.6492 232.55C24.6492 231.9 25.0292 231.43 26.6992 231.31C26.7192 231.61 26.7192 231.92 26.6992 232.22C26.6492 232.93 26.2292 233.46 25.6092 233.46ZM28.3251 233.31L28.3351 234.07C29.5251 234.07 29.8051 233.66 29.8851 232.97C29.9451 232.5 30.0151 230.98 30.0851 229.74H31.5251V234H32.3551V229H29.3451C29.2851 230.32 29.2351 231.86 29.1551 232.66C29.0851 233.34 28.6851 233.31 28.3251 233.31ZM35.4316 234.1C36.7616 234.1 37.5516 233.16 37.5516 231.5C37.5516 229.84 36.7616 228.9 35.4316 228.9C34.1016 228.9 33.3116 229.84 33.3116 231.5C33.3116 233.16 34.1016 234.1 35.4316 234.1ZM35.4316 233.41C34.7416 233.41 34.2316 232.79 34.2316 231.5C34.2316 230.23 34.7416 229.58 35.4316 229.58C36.1116 229.58 36.6316 230.23 36.6316 231.5C36.6316 232.79 36.1116 233.41 35.4316 233.41ZM39.334 234V229.78H41.424V229H38.504V234H39.334Z" fill="black" fill-opacity="0.8"/>
<path d="M226.75 30V27.14H227.61C228.41 27.14 228.57 27.49 228.76 28.07C229.01 28.82 229.19 29.65 229.41 30H230.46C230.02 29.28 229.72 28.15 229.55 27.69C229.33 27.08 229.06 26.86 228.42 26.76V26.66C229.03 26.57 229.31 26.33 229.54 25.76C229.7 25.35 229.93 24.48 230.43 23.52H229.43C229.19 23.92 228.98 24.88 228.74 25.55C228.54 26.1 228.32 26.33 227.65 26.33H226.75V23.52H225.87V30H226.75ZM233.565 30.1C233.785 30.1 234.025 30.06 234.285 29.93C234.735 29.7 235.135 29.22 235.315 28.53C235.395 28.22 235.445 27.88 235.445 27.5C235.445 27.12 235.395 26.78 235.315 26.47C235.105 25.65 234.525 24.95 233.565 24.95C232.735 24.95 232.275 25.39 232.075 26.16L231.985 26.15C232.045 25.79 232.135 25.33 232.135 25.08V25H231.275V31.78H232.135V29.97C232.135 29.72 232.045 29.26 231.985 28.9L232.075 28.89C232.275 29.66 232.735 30.1 233.565 30.1ZM233.355 29.39C232.645 29.39 232.175 28.69 232.175 27.5C232.175 26.33 232.645 25.61 233.355 25.61C234.055 25.61 234.595 26.33 234.595 27.5C234.595 28.69 234.055 29.39 233.355 29.39ZM240.19 28.34L239.36 28.33C239.36 29.13 238.86 29.41 238.34 29.41C237.64 29.41 237.09 28.87 237.08 27.55H240.13C240.16 27.37 240.17 27.18 240.17 27.01C240.17 25.86 239.58 24.9 238.31 24.9C236.89 24.9 236.21 26.06 236.21 27.54C236.21 28.96 236.84 30.1 238.29 30.1C239.44 30.1 240.16 29.44 240.19 28.34ZM238.27 25.58C238.93 25.58 239.33 26.03 239.33 26.92V27.01H237.09C237.14 26.16 237.55 25.58 238.27 25.58ZM244.795 29.33V25H241.775C241.745 26.29 241.705 27.75 241.625 28.16C241.485 28.89 241.265 29.33 240.785 29.33H240.695V31.34H241.415V30H244.765V31.34H245.485V29.33H244.795ZM241.665 29.33V29.26C242.045 29.04 242.265 28.62 242.345 27.97C242.385 27.64 242.435 26.76 242.475 25.78H243.965V29.33H241.665ZM249.246 25.99L249.326 26.01C249.216 26.51 249.166 27.2 249.156 27.92L249.146 30H249.976V25H249.146L247.886 27.22C247.326 28.2 247.206 28.67 247.016 29.09L246.926 29.05C247.056 28.59 247.096 27.63 247.096 26.92V25H246.266V30H247.126L248.326 27.89C248.936 26.81 249.056 26.42 249.246 25.99ZM253.215 30V25.76H254.815V25H250.755V25.76H252.355V30H253.215ZM258.346 30V27.83H260.446V30H261.296V25H260.446V27.06H258.346V25H257.496V30H258.346ZM262.593 26.48H263.403C263.303 25.93 263.633 25.56 264.283 25.56C264.893 25.56 265.213 25.91 265.213 26.64V26.83C263.983 26.94 262.343 27.03 262.343 28.68C262.343 29.39 262.783 30.1 263.813 30.1C264.663 30.1 265.073 29.62 265.273 29.01H265.363C265.303 29.35 265.203 29.79 265.203 29.92V30H266.053V26.7C266.053 25.57 265.623 24.9 264.373 24.9C263.183 24.9 262.533 25.55 262.593 26.48ZM264.123 29.46C263.563 29.46 263.163 29.09 263.163 28.55C263.163 27.9 263.543 27.43 265.213 27.31C265.233 27.61 265.233 27.92 265.213 28.22C265.163 28.93 264.743 29.46 264.123 29.46ZM266.839 29.31L266.849 30.07C268.039 30.07 268.319 29.66 268.399 28.97C268.459 28.5 268.529 26.98 268.599 25.74H270.039V30H270.869V25H267.859C267.799 26.32 267.749 27.86 267.669 28.66C267.599 29.34 267.199 29.31 266.839 29.31ZM275.193 25.99L275.273 26.01C275.163 26.51 275.113 27.2 275.103 27.92L275.093 30H275.923V25H275.093L273.833 27.22C273.273 28.2 273.153 28.67 272.963 29.09L272.873 29.05C273.003 28.59 273.043 27.63 273.043 26.92V25H272.213V30H273.073L274.273 27.89C274.883 26.81 275.003 26.42 275.193 25.99ZM279.622 25V27.38C279.352 27.49 279.012 27.54 278.682 27.54C278.182 27.53 277.732 27.35 277.732 26.71V25H276.882V26.85C276.882 28 277.612 28.18 278.382 28.18C278.722 28.18 279.282 28.1 279.622 27.93V30H280.472V25H279.622ZM282.663 30V27.83H284.763V30H285.613V25H284.763V27.06H282.663V25H281.813V30H282.663ZM287.769 25H286.949V30H288.649C290.189 30 290.539 28.97 290.539 28.4C290.539 27.68 290.179 27.18 289.659 26.99C289.299 26.86 289.059 26.85 288.379 26.85H287.769V25ZM292.079 30V25H291.229V30H292.079ZM289.669 28.4C289.669 29.02 289.189 29.29 288.579 29.29H287.769V27.51H288.629C289.289 27.51 289.669 27.82 289.669 28.4ZM298.574 25H297.304L296.454 27.7C296.284 28.24 296.114 28.92 296.014 29.36H296.004C295.874 28.71 295.664 28.04 295.554 27.67L294.764 25H293.524L293.294 30H294.064L294.154 26.94C294.164 26.59 294.164 26.24 294.134 25.71H294.234C294.334 26.23 294.434 26.55 294.594 27.08L295.434 29.96H296.484L297.264 27.42C297.514 26.59 297.644 26.19 297.714 25.71H297.814C297.824 26.2 297.804 26.63 297.814 27.02L297.924 30H298.774L298.574 25ZM302.966 25.99L303.046 26.01C302.936 26.51 302.886 27.2 302.876 27.92L302.866 30H303.696V25H302.866L301.606 27.22C301.046 28.2 300.926 28.67 300.736 29.09L300.646 29.05C300.776 28.59 300.816 27.63 300.816 26.92V25H299.986V30H300.846L302.046 27.89C302.656 26.81 302.776 26.42 302.966 25.99Z" fill="black" fill-opacity="0.8"/>
<rect x="1" y="1" width="321" height="429" rx="14" stroke="white" stroke-width="2"/>
</svg>
